<svg xmlns="http://www.w3.org/2000/svg" viewBox="0 0 64 64" stroke-width="3" stroke="currentColor" fill="none"><path d="M37.49,19.86c0-.07.36-.3,1.51-.3h3.76A2.21,2.21,0,0,0,45,17.34h0V10.78a2.22,2.22,0,0,0-2.19-2.26h-5.6a11.47,11.47,0,0,0-8.43,3.28,12,12,0,0,0-3.19,8.64v5.95H21.24A2.23,2.23,0,0,0,19,28.61v7.07a2.21,2.21,0,0,0,2.21,2.21h4.28V53.24a2.22,2.22,0,0,0,2.18,2.25h7.35a2.21,2.21,0,0,0,2.21-2.22h0V37.94h5.23a2.23,2.23,0,0,0,2.22-2.22V28.64a2.21,2.21,0,0,0-2.22-2.21H37.26V21.22A2.44,2.44,0,0,1,37.49,19.86Z" stroke-linecap="round"/></svg>