<svg width="623" height="788" viewBox="0 0 623 788" fill="none" xmlns="http://www.w3.org/2000/svg">
<g clip-path="url(#clip0_24_252)" filter="url(#filter0_d_24_252)">
<path d="M599.123 287.487H23.3505C18.2203 287.481 13.3018 285.262 9.67417 281.317C6.04653 277.373 4.00592 272.024 4 266.446V21.0412C4.00592 15.4627 6.04653 10.1145 9.67417 6.16991C13.3018 2.22531 18.2203 0.00641087 23.3505 -3.05176e-05H599.123C604.253 0.00641087 609.171 2.22531 612.799 6.16991C616.427 10.1145 618.467 15.4627 618.473 21.0412V266.446C618.467 272.025 616.427 277.373 612.799 281.317C609.171 285.262 604.253 287.481 599.123 287.487Z" fill="#18181C" fill-opacity="0.05"/>
<path d="M464.84 274.068H114.745C88.6569 274.036 63.6454 262.752 45.198 242.693C26.7506 222.634 16.3739 195.437 16.3445 167.069V120.43C16.3739 92.062 26.7505 64.865 45.1979 44.8056C63.6453 24.7463 88.6569 13.4628 114.745 13.4306H507.731C533.82 13.4628 558.831 24.7463 577.279 44.8056C595.726 64.865 606.103 92.062 606.132 120.43C606.09 161.163 591.19 200.215 564.702 229.017C538.213 257.82 502.3 274.021 464.84 274.068Z" fill="white"/>
<path d="M374.53 83.6819H143.113C141.789 83.6819 140.52 83.1102 139.584 82.0925C138.648 81.0748 138.123 79.6946 138.123 78.2554C138.123 76.8162 138.648 75.4359 139.584 74.4182C140.52 73.4006 141.789 72.8288 143.113 72.8288H374.53C375.853 72.8288 377.123 73.4006 378.058 74.4182C378.994 75.4359 379.52 76.8162 379.52 78.2554C379.52 79.6946 378.994 81.0748 378.058 82.0925C377.123 83.1102 375.853 83.6819 374.53 83.6819Z" fill="#18181C" fill-opacity="0.25"/>
<path d="M491.677 141.58H143.113C141.789 141.58 140.52 141.008 139.584 139.99C138.648 138.973 138.123 137.592 138.123 136.153C138.123 134.714 138.648 133.334 139.584 132.316C140.52 131.298 141.789 130.727 143.113 130.727H491.677C493 130.727 494.27 131.298 495.205 132.316C496.141 133.334 496.667 134.714 496.667 136.153C496.667 137.592 496.141 138.973 495.205 139.99C494.27 141.008 493 141.58 491.677 141.58Z" fill="#18181C" fill-opacity="0.25"/>
<path d="M491.677 199.477H143.113C141.789 199.477 140.52 198.905 139.584 197.888C138.648 196.87 138.123 195.49 138.123 194.051C138.123 192.611 138.648 191.231 139.584 190.214C140.52 189.196 141.789 188.624 143.113 188.624H491.677C493 188.624 494.27 189.196 495.205 190.214C496.141 191.231 496.667 192.611 496.667 194.051C496.667 195.49 496.141 196.87 495.205 197.888C494.27 198.905 493 199.477 491.677 199.477Z" fill="#18181C" fill-opacity="0.25"/>
<path d="M491.677 199.477H143.113C141.789 199.477 140.52 198.905 139.584 197.888C138.648 196.87 138.123 195.49 138.123 194.051C138.123 192.611 138.648 191.231 139.584 190.214C140.52 189.196 141.789 188.624 143.113 188.624H491.677C493 188.624 494.27 189.196 495.205 190.214C496.141 191.231 496.667 192.611 496.667 194.051C496.667 195.49 496.141 196.87 495.205 197.888C494.27 198.905 493 199.477 491.677 199.477Z" fill="#18181C" fill-opacity="0.25"/>
<path d="M350.109 148.225C350.165 149.859 350.549 151.461 351.235 152.916C351.922 154.372 352.893 155.646 354.081 156.649C355.269 157.652 356.645 158.36 358.112 158.723C359.579 159.085 361.101 159.093 362.571 158.747L381.603 192.697L389.703 174.006L370.388 144.632C369.689 141.986 368.122 139.709 365.982 138.235C363.843 136.761 361.281 136.192 358.781 136.634C356.282 137.077 354.018 138.502 352.42 140.638C350.822 142.774 350 145.473 350.109 148.225H350.109Z" fill="#FFB6B6"/>
<path d="M492.931 245.523L427.344 206.839L406.656 185.733C406.656 185.733 397.662 183.115 400.973 179.935C404.283 176.756 394.85 173.689 394.85 173.689L383.744 162.359L367.963 174.501L372.53 182.199C372.53 182.199 372.216 194.943 378.636 192.491C385.057 190.04 383.452 200.609 383.452 200.609L421.775 265.205L492.931 245.523Z" fill="#B36B00"/>
<path d="M299.324 209.076C334.705 209.076 363.387 177.888 363.387 139.416C363.387 100.943 334.705 69.755 299.324 69.755C263.943 69.755 235.261 100.943 235.261 139.416C235.261 177.888 263.943 209.076 299.324 209.076Z" fill="#0000FF"/>
<path d="M493.134 752.916H479.813L473.474 697.049H493.134V752.916Z" fill="#FFB6B6"/>
<path d="M500.165 778.012H490.612L488.907 768.205L484.54 778.012H459.204C457.99 778.012 456.807 777.59 455.829 776.808C454.851 776.025 454.128 774.923 453.767 773.662C453.405 772.402 453.424 771.048 453.82 769.8C454.216 768.552 454.969 767.474 455.968 766.723L476.201 751.529V741.615L497.482 742.996L500.165 778.012Z" fill="#18181C"/>
<path d="M386.597 752.916H373.277L366.938 697.049H386.597V752.916Z" fill="#FFB6B6"/>
<path d="M393.628 778.012H384.075L382.37 768.205L378.003 778.012H352.667C351.453 778.012 350.27 777.59 349.292 776.808C348.314 776.025 347.591 774.923 347.23 773.662C346.869 772.402 346.887 771.048 347.283 769.8C347.679 768.552 348.432 767.474 349.431 766.723L369.664 751.529V741.615L390.945 742.996L393.628 778.012Z" fill="#18181C"/>
<path d="M479 330.393H411.768V413.621H479V330.393Z" fill="#FFB6B6"/>
<path d="M413.32 371.445L401.942 386.066L382.29 431.054L332.771 559.17L322.298 586.265L330.755 634.162C330.755 634.162 332.124 667.906 332.124 673.43C332.124 684.677 340.775 690.909 340.775 690.909L347.122 726.853L408.665 724.042C408.665 724.042 406.518 684.421 393.628 674.426C380.738 664.432 374.813 612.346 374.813 612.346L367.809 589.236L436.075 501.243L436.516 532.001L436.729 546.889C436.729 546.889 426.732 643.719 438.385 662.511C450.039 681.303 438.623 679.092 438.623 679.092L439.178 717.856L512.099 718.418L496.012 606.816C496.012 606.816 487.843 599.802 492.213 592.752C496.584 585.702 487.977 577.068 487.977 577.068L491.837 489.943C491.837 489.943 487.563 474.894 492.591 472.938C497.618 470.982 493.251 458.04 493.251 458.04L493.998 441.177L479 388.878L413.32 371.445Z" fill="#18181C"/>
<path d="M480.035 330.393L487.275 306.774L492.447 298.901L494.515 276.407C494.515 215.672 482.057 225.786 482.057 225.786L474.863 204.425L441.764 203.3L420.56 225.232L402.976 231.981L396.091 270.885L408.665 312.397L411.768 334.892C405.849 346.774 406.35 341.154 411.251 350.075L469.691 367.508C490.378 375.381 490.378 355.136 486.23 350.075C482.082 345.014 480.035 330.393 480.035 330.393Z" fill="#B36B00"/>
<path d="M454.038 195.751C470.984 195.751 484.721 180.813 484.721 162.386C484.721 143.959 470.984 129.021 454.038 129.021C437.091 129.021 423.354 143.959 423.354 162.386C423.354 180.813 437.091 195.751 454.038 195.751Z" fill="#FFB6B6"/>
<path d="M495.001 206.922C495.29 207.452 495.466 208.047 495.514 208.661C495.563 209.276 495.483 209.894 495.281 210.47C495.079 211.046 494.761 211.565 494.349 211.989C493.937 212.413 493.442 212.73 492.902 212.917C488.785 214.401 486.251 218.731 483.293 222.196C480.345 225.648 475.597 228.516 471.832 226.166C468.078 223.826 467.819 217.854 464.675 214.615C461.613 211.466 456.524 211.848 452.925 214.244L452.817 214.316C452.196 214.756 451.469 214.989 450.727 214.985C449.986 214.982 449.261 214.742 448.644 214.295C448.026 213.849 447.542 213.215 447.252 212.473C446.963 211.73 446.879 210.912 447.012 210.118C448.273 202.825 449.534 195.532 450.794 188.241C447.483 196.913 442.677 204.815 436.634 211.522C434.969 213.611 432.86 215.225 430.49 216.223C428.338 216.966 426.249 214.548 424.16 214.986C429.352 210.049 446.812 178.399 443.688 157.243C440.016 157.693 436.344 158.143 432.672 158.593C432.275 156.704 431.426 154.962 430.21 153.543C430.359 155.382 430.144 157.234 429.58 158.976C428.049 159.167 426.508 159.347 424.977 159.538C422.846 159.797 420.529 160.022 418.698 158.807C415.647 156.782 415.554 151.991 416.423 148.212C418.967 137.224 426.683 128.035 436.127 123.221C445.57 118.418 448.363 129.114 458.313 125.695C477.966 118.947 493.026 130.487 498.332 151.901C502.79 169.863 499.552 188.927 495.001 206.922Z" fill="#18181C"/>
<path d="M579.948 778.738H542.376L542.215 778.419C541.735 777.472 541.271 776.468 540.837 775.437C536.967 766.427 535.331 756.123 533.888 747.032L532.801 740.18C532.67 739.35 532.769 738.496 533.086 737.728C533.403 736.96 533.924 736.312 534.582 735.867C535.24 735.423 536.004 735.202 536.778 735.233C537.552 735.263 538.3 735.545 538.926 736.041C544.636 740.558 550.348 745.072 556.063 749.581C558.226 751.293 560.697 753.274 563.064 755.415C563.292 754.209 563.531 753 563.77 751.807C563.934 750.984 564.321 750.233 564.881 749.65C565.441 749.067 566.147 748.679 566.911 748.535C567.675 748.392 568.46 748.499 569.168 748.844C569.875 749.189 570.471 749.755 570.88 750.471L575.276 758.15C578.483 763.759 581.312 769.285 580.736 775.246C580.739 775.318 580.734 775.391 580.721 775.462C580.606 776.441 580.392 777.403 580.083 778.332L579.948 778.738Z" fill="#BFCFFF"/>
<path d="M617.659 779.622L260.63 780C260.274 779.998 259.933 779.843 259.681 779.568C259.43 779.293 259.289 778.922 259.289 778.534C259.289 778.147 259.43 777.775 259.681 777.5C259.933 777.226 260.274 777.07 260.63 777.068L617.659 776.69C618.015 776.692 618.356 776.847 618.608 777.122C618.859 777.397 619 777.768 619 778.156C619 778.543 618.859 778.915 618.608 779.19C618.356 779.464 618.015 779.62 617.659 779.622Z" fill="#18181C" fill-opacity="0.25"/>
<path d="M293.5 233.174L254.229 197.111C252.886 195.876 252.05 194.112 251.902 192.207C251.754 190.301 252.308 188.41 253.441 186.947L260.669 177.64C261.805 176.181 263.427 175.271 265.18 175.11C266.932 174.949 268.671 175.551 270.016 176.783L309.288 212.846C310.63 214.081 311.467 215.845 311.615 217.751C311.763 219.656 311.209 221.548 310.076 223.01L302.848 232.317C301.712 233.777 300.09 234.687 298.337 234.847C296.585 235.008 294.845 234.406 293.5 233.174Z" fill="#B36B00"/>
<path d="M256.29 187.698C255.679 188.486 255.381 189.505 255.46 190.532C255.54 191.559 255.991 192.509 256.714 193.175L295.986 229.237C296.711 229.901 297.648 230.226 298.592 230.139C299.537 230.052 300.411 229.562 301.023 228.776L308.251 219.469C308.862 218.681 309.16 217.661 309.08 216.635C309.001 215.608 308.55 214.657 307.827 213.991L268.555 177.929C267.83 177.265 266.893 176.941 265.949 177.027C265.004 177.114 264.13 177.604 263.518 178.391L256.29 187.698Z" fill="white"/>
<path d="M279.345 201.717C279.208 201.924 279.029 202.094 278.822 202.213C278.615 202.332 278.385 202.397 278.151 202.403L271.98 202.557C271.782 202.562 271.585 202.525 271.4 202.447C271.215 202.369 271.046 202.252 270.903 202.103C270.759 201.954 270.644 201.776 270.564 201.579C270.484 201.381 270.441 201.169 270.436 200.953C270.432 200.738 270.466 200.523 270.538 200.322C270.609 200.121 270.717 199.938 270.854 199.782C270.991 199.626 271.155 199.501 271.336 199.414C271.517 199.327 271.713 199.279 271.911 199.274L275.948 199.173L271.972 187.767C271.832 187.36 271.845 186.909 272.01 186.513C272.174 186.117 272.477 185.808 272.85 185.654C273.224 185.5 273.639 185.513 274.004 185.691C274.369 185.869 274.654 186.197 274.796 186.603L279.528 200.18C279.614 200.425 279.644 200.69 279.616 200.951C279.588 201.211 279.503 201.461 279.369 201.679L279.345 201.717Z" fill="#0000FF"/>
<path d="M280.136 204.583C281.624 204.821 283.047 205.41 284.303 206.31C285.559 207.21 286.618 208.399 287.406 209.792C288.194 211.186 288.691 212.75 288.863 214.375C289.035 216 288.877 217.646 288.4 219.198L317.368 243.461L299.4 250.184L274.647 226.112C272.303 225.069 270.393 223.127 269.278 220.655C268.163 218.182 267.921 215.351 268.597 212.697C269.274 210.043 270.822 207.751 272.949 206.256C275.075 204.76 277.633 204.165 280.136 204.583L280.136 204.583Z" fill="#FFB6B6"/>
<path d="M430.947 216.58L356.781 266.164C356.781 266.164 326.878 254.134 332.722 248.564C338.566 242.995 319.962 239.229 319.962 239.229L299.41 224.194L287.484 239.265C287.484 239.265 289.657 263.745 293.354 259.507C297.052 255.268 302.578 266.847 302.578 266.847C302.578 266.847 304.212 279.776 314.737 276.522C325.262 273.269 353.504 307.373 353.504 307.373L444.779 270.357L430.947 216.58Z" fill="#B36B00"/>
<path d="M297.071 167.359C296.212 167.359 295.364 167.142 294.595 166.724C293.826 166.305 293.157 165.698 292.641 164.95L279.058 145.256C278.621 144.623 278.304 143.904 278.123 143.137C277.943 142.371 277.903 141.574 278.006 140.791C278.109 140.008 278.352 139.255 278.723 138.575C279.094 137.894 279.584 137.3 280.166 136.825C281.341 135.867 282.818 135.455 284.272 135.681C284.992 135.793 285.684 136.058 286.31 136.461C286.936 136.864 287.483 137.397 287.919 138.03L296.806 150.913L319.63 113.686C320.445 112.357 321.712 111.434 323.152 111.121C324.593 110.808 326.088 111.13 327.311 112.016C328.533 112.902 329.381 114.279 329.669 115.845C329.957 117.412 329.662 119.038 328.847 120.367L301.68 164.678C301.189 165.479 300.528 166.141 299.753 166.607C298.978 167.073 298.111 167.331 297.225 167.358C297.174 167.359 297.123 167.359 297.071 167.359Z" fill="white"/>
</g>
<defs>
<filter id="filter0_d_24_252" x="0" y="0" width="623" height="788" filterUnits="userSpaceOnUse" color-interpolation-filters="sRGB">
<feFlood flood-opacity="0" result="BackgroundImageFix"/>
<feColorMatrix in="SourceAlpha" type="matrix" values="0 0 0 0 0 0 0 0 0 0 0 0 0 0 0 0 0 0 127 0" result="hardAlpha"/>
<feOffset dy="4"/>
<feGaussianBlur stdDeviation="2"/>
<feComposite in2="hardAlpha" operator="out"/>
<feColorMatrix type="matrix" values="0 0 0 0 0 0 0 0 0 0 0 0 0 0 0 0 0 0 0.25 0"/>
<feBlend mode="normal" in2="BackgroundImageFix" result="effect1_dropShadow_24_252"/>
<feBlend mode="normal" in="SourceGraphic" in2="effect1_dropShadow_24_252" result="shape"/>
</filter>
<clipPath id="clip0_24_252">
<rect width="615" height="780" fill="white" transform="translate(4)"/>
</clipPath>
</defs>
</svg>
